<svg xmlns="http://www.w3.org/2000/svg" xmlns:xlink="http://www.w3.org/1999/xlink" viewBox="0 0 100 100">
  <defs>
    <clipPath id="a">
      <path d="M48.645,19.72a3.407,3.407,0,0,1,2.7,0L79.717,32.145a1.257,1.257,0,0,1,0,2.367L51.349,46.94a3.432,3.432,0,0,1-2.7,0L20.276,34.512a1.256,1.256,0,0,1,0-2.367ZM73.157,44.44l6.558,3.108a1.4,1.4,0,0,1,.128,2.495l-.128.068L51.346,63.581a3.16,3.16,0,0,1-2.5.086l-.2-.086L20.276,50.111a1.4,1.4,0,0,1-.128-2.495l.128-.068,6.558-3.108L50,55.424Zm-.536,16.667L79.71,64.42a1.4,1.4,0,0,1,.129,2.5l-.129.067L51.332,80.257a3.185,3.185,0,0,1-2.477.083l-.2-.083L20.282,66.99a1.4,1.4,0,0,1-.13-2.5l.13-.067,7.089-3.313L50,71.685Z" fill="none" clip-rule="evenodd"/>
    </clipPath>
  </defs>
  <title>app-templates-front</title>
  <g clip-path="url(#a)">
    <rect x="14.44" y="14.44" width="71.111" height="71.111" fill="#fff"/>
  </g>
</svg>
