<svg xmlns="http://www.w3.org/2000/svg" xmlns:xlink="http://www.w3.org/1999/xlink" viewBox="0 0 100 100">
  <defs>
    <symbol id="Target_Width_and_Height" data-name="Target Width and Height" viewBox="0 0 100 100">
      <g opacity="0.2">
        <path d="M0,0V100H100V0ZM50,86A36,36,0,1,1,86,50,36,36,0,0,1,50,86Z" fill="#a262c2"/>
      </g>
      <g opacity="0.2">
        <path d="M0,100H100V78H0ZM0,0V22H100V0Z" fill="#a262c2"/>
      </g>
      <g opacity="0.2">
        <path d="M0,100H22V0H0ZM78,0V100h22V0Z" fill="#a262c2"/>
      </g>
      <g opacity="0.2">
        <path d="M0,0V100H100V0ZM82,82H18V18H82Z" fill="#a262c2"/>
      </g>
    </symbol>
  </defs>
  <title>icon_</title>
  <g id="Guides">
    <use width="100" height="100" xlink:href="#Target_Width_and_Height"/>
  </g>
  <g id="Serverless">
    <g>
      <path d="M0,0V100H100V0ZM50,81.944A31.944,31.944,0,1,1,81.944,50,31.944,31.944,0,0,1,50,81.944Z" fill="#383281"/>
      <path d="M50,61.389V50H47.222V61.389a4.423,4.423,0,0,0-2.5,2.5A4.13,4.13,0,1,0,50,61.389Z" fill="#383281"/>
      <path d="M38.889,61.389V50H36.111V61.389a4.423,4.423,0,0,0-2.5,2.5,4.13,4.13,0,1,0,5.278-2.5Z" fill="#383281"/>
      <path d="M61.111,61.389V50H58.333V61.389a4.423,4.423,0,0,0-2.5,2.5,4.13,4.13,0,1,0,5.278-2.5Z" fill="#383281"/>
      <path d="M61.667,39.167A11.618,11.618,0,0,0,39.722,35a5,5,0,0,0-5.833.278,4.887,4.887,0,0,0-.833,6.944,8.117,8.117,0,0,0-5,5,7.833,7.833,0,0,0,5.277,9.722V47.222H63.889v9.445c3.055-1.389,5.278-3.889,5.555-7.223C70,44.444,66.389,39.722,61.667,39.167Z" fill="#383281"/>
    </g>
  </g>
</svg>
