<svg xmlns="http://www.w3.org/2000/svg" xmlns:xlink="http://www.w3.org/1999/xlink" viewBox="0 0 100 100">
  <defs>
    <symbol id="Target_Width_and_Height" data-name="Target Width and Height" viewBox="0 0 100 100">
      <g opacity="0.2">
        <path d="M0,0V100H100V0ZM50,86A36,36,0,1,1,86,50,36,36,0,0,1,50,86Z" fill="#a262c2"/>
      </g>
      <g opacity="0.2">
        <path d="M0,100H100V78H0ZM0,0V22H100V0Z" fill="#a262c2"/>
      </g>
      <g opacity="0.2">
        <path d="M0,100H22V0H0ZM78,0V100h22V0Z" fill="#a262c2"/>
      </g>
      <g opacity="0.2">
        <path d="M0,0V100H100V0ZM82,82H18V18H82Z" fill="#a262c2"/>
      </g>
    </symbol>
  </defs>
  <title>icon_</title>
  <g id="Guides">
    <use width="100" height="100" xlink:href="#Target_Width_and_Height"/>
  </g>
  <g id="ServiceMesh">
    <path d="M50,27.778a4.167,4.167,0,1,1-4.167,4.166A4.167,4.167,0,0,1,50,27.778Zm-6.656,6.754a.972.972,0,1,1,.839,1.754l-5.555,2.778a.972.972,0,0,1-.868-1.739l5.555-2.778ZM31.944,37.5a4.167,4.167,0,1,1-4.166,4.167A4.166,4.166,0,0,1,31.944,37.5Zm36.112,0a4.167,4.167,0,1,1-4.167,4.167A4.166,4.166,0,0,1,68.056,37.5ZM37.318,44.689a.971.971,0,0,1,1.311-.411l5.556,2.777a.972.972,0,1,1-.87,1.739L37.76,46.017,37.729,46A.971.971,0,0,1,37.318,44.689Zm24.056-.411a.972.972,0,0,1,.871,1.739L56.69,48.794a.972.972,0,1,1-.871-1.739ZM50,47.222a4.167,4.167,0,1,1-4.167,4.167A4.167,4.167,0,0,1,50,47.222Zm1.389,9.722v8.334H48.611V56.944Zm-19.445,0a4.167,4.167,0,1,1-4.166,4.167A4.167,4.167,0,0,1,31.944,56.944Zm36.112,0a4.167,4.167,0,1,1-4.167,4.167A4.167,4.167,0,0,1,68.056,56.944Zm-6.682,6.778a.972.972,0,0,1,.871,1.739L56.69,68.239a.972.972,0,1,1-.871-1.739Zm-24.056.413a.97.97,0,0,1,1.311-.413L44.185,66.5a.972.972,0,1,1-.87,1.739L37.76,65.461l-.031-.015A.97.97,0,0,1,37.318,64.135ZM50,66.667a4.167,4.167,0,1,1-4.167,4.166A4.167,4.167,0,0,1,50,66.667Zm0-48.611A31.944,31.944,0,1,0,81.944,50,31.944,31.944,0,0,0,50,18.056ZM100,0V100H0V0Z" fill="#004436" fill-rule="evenodd"/>
  </g>
</svg>
