<svg xmlns="http://www.w3.org/2000/svg" viewBox="0 0 16 16">
  <title>icon_</title>
  <g>
    <path d="M12.568,9.884a5.989,5.989,0,0,1-9.136,0L1,11.274l7,4,7-4Z"/>
    <path d="M8,11A5,5,0,1,0,3,6,5,5,0,0,0,8,11ZM4.556,8H6.169A7.194,7.194,0,0,0,6.7,9.763,4,4,0,0,1,4.556,8ZM7,6c0-.359.02-.687.048-1h1.9C8.98,5.313,9,5.641,9,6s-.02.687-.048,1h-1.9C7.02,6.687,7,6.359,7,6ZM8.811,4H7.189A3.928,3.928,0,0,1,8,2.025,3.928,3.928,0,0,1,8.811,4Zm0,4A3.928,3.928,0,0,1,8,9.975,3.928,3.928,0,0,1,7.189,8ZM9.3,9.763A7.194,7.194,0,0,0,9.831,8h1.613A4,4,0,0,1,9.3,9.763ZM11.858,7H9.96c.026-.323.04-.657.04-1s-.014-.677-.04-1h1.9A3.939,3.939,0,0,1,12,6,3.939,3.939,0,0,1,11.858,7Zm-.414-3H9.831A7.194,7.194,0,0,0,9.3,2.237,4,4,0,0,1,11.444,4ZM6.7,2.237A7.194,7.194,0,0,0,6.169,4H4.556A4,4,0,0,1,6.7,2.237ZM4.142,5h1.9C6.014,5.323,6,5.657,6,6s.014.677.04,1h-1.9A3.939,3.939,0,0,1,4,6,3.939,3.939,0,0,1,4.142,5Z"/>
  </g>
</svg>
