<svg xmlns="http://www.w3.org/2000/svg" viewBox="0 0 36 36">
  <title>icon_</title>
  <g>
    <circle cx="18" cy="4" r="3"/>
    <circle cx="31" cy="11" r="3"/>
    <circle cx="31" cy="25" r="3"/>
    <circle cx="5" cy="25" r="3"/>
    <circle cx="5" cy="11" r="3"/>
    <circle cx="18" cy="32" r="3"/>
    <circle cx="18" cy="18" r="3"/>
    <path d="M13.187,5.874l-4,2A.7.7,0,0,0,9.5,9.2a.687.687,0,0,0,.312-.074l4-2a.7.7,0,1,0-.626-1.252Z"/>
    <path d="M26.189,12.88l-4,2a.7.7,0,0,0,.315,1.326.687.687,0,0,0,.312-.074l4-2a.7.7,0,1,0-.627-1.252Z"/>
    <path d="M13.813,14.88l-4-2a.7.7,0,1,0-.626,1.252l4,2a.687.687,0,0,0,.312.074.7.7,0,0,0,.314-1.326Z"/>
    <path d="M13.813,28.88l-4-2a.7.7,0,1,0-.626,1.252l4,2a.687.687,0,0,0,.312.074.7.7,0,0,0,.314-1.326Z"/>
    <path d="M26.189,26.88l-4,2a.7.7,0,0,0,.315,1.326.687.687,0,0,0,.312-.074l4-2a.7.7,0,1,0-.627-1.252Z"/>
    <rect x="17" y="22" width="2" height="6"/>
  </g>
</svg>
