<svg xmlns="http://www.w3.org/2000/svg" viewBox="0 0 16 16">
  <title>icon_</title>
  <g>
    <path d="M4.309,9.942l3.965,2a.5.5,0,0,0,.45,0l4-2.008c.01,0,.014-.015.023-.021a.5.5,0,0,0,.165-.151.13.13,0,0,0,.015-.018.5.5,0,0,0,.065-.229c0-.01.008-.018.008-.028V3.5a.5.5,0,0,0-.342-.475l-3.008-1a.5.5,0,0,0-.435.059L6.223,4.077A.5.5,0,0,0,6,4.493V9.677l-.966-.489V3.77l2.74-1.856a.5.5,0,1,0-.561-.828l-2.959,2a.5.5,0,0,0-.22.414V9.5A.5.5,0,0,0,4.309,9.942ZM7,4.761,9.566,3.053l1.142.379L8.237,5.1a.5.5,0,0,0-.22.414V10.7L7,10.182Z"/>
    <path d="M13.612,10.481a1.482,1.482,0,0,1-.439.352l-4,2.009a1.5,1.5,0,0,1-1.348,0L2.761,10.268,1,11.274l7,4,7-4Z"/>
  </g>
</svg>
